SplineFontDB: 3.2
FontName: wendy
FullName: wendy
FamilyName: wendy
Weight: Book
Copyright: Copyright (c) wendy @ gminor.org
Version: 1.00 January 25, 2009, initial release
ItalicAngle: 0
UnderlinePosition: -125
UnderlineWidth: 50
Ascent: 800
Descent: 200
InvalidEm: 0
sfntRevision: 0x00010000
LayerCount: 2
Layer: 0 1 "Back" 1
Layer: 1 1 "Fore" 0
XUID: [1021 589 -953727638 10945]
StyleMap: 0x0040
FSType: 0
OS2Version: 0
OS2_WeightWidthSlopeOnly: 0
OS2_UseTypoMetrics: 0
CreationTime: 986437935
ModificationTime: 1570356016
PfmFamily: 81
TTFWeight: 400
TTFWidth: 5
LineGap: 30
VLineGap: 0
Panose: 0 0 0 0 0 0 0 0 0 0
OS2TypoAscent: 700
OS2TypoAOffset: 0
OS2TypoDescent: -200
OS2TypoDOffset: 0
OS2TypoLinegap: 30
OS2WinAscent: 956
OS2WinAOffset: 0
OS2WinDescent: 356
OS2WinDOffset: 0
HheadAscent: 700
HheadAOffset: 0
HheadDescent: -200
HheadDOffset: 0
OS2SubXSize: 100
OS2SubYSize: 100
OS2SubXOff: 0
OS2SubYOff: 140
OS2SupXSize: 100
OS2SupYSize: 100
OS2SupXOff: 0
OS2SupYOff: 140
OS2StrikeYSize: 50
OS2StrikeYPos: 250
OS2Vendor: 'miep'
OS2UnicodeRanges: 00000003.00000000.00000000.00000000
DEI: 91125
TtTable: prep
PUSHW_1
 0
CALL
EndTTInstrs
TtTable: fpgm
PUSHW_1
 0
FDEF
MPPEM
PUSHW_1
 9
LT
IF
PUSHB_2
 1
 1
INSTCTRL
EIF
PUSHW_1
 511
SCANCTRL
PUSHW_1
 132
SCVTCI
PUSHW_2
 9
 3
SDS
SDB
ENDF
PUSHW_1
 1
FDEF
DUP
DUP
RCVT
ROUND[Black]
WCVTP
PUSHB_1
 1
ADD
ENDF
PUSHW_1
 2
FDEF
PUSHW_1
 1
LOOPCALL
POP
ENDF
PUSHW_1
 3
FDEF
DUP
GC[cur]
PUSHB_1
 3
CINDEX
GC[cur]
GT
IF
SWAP
EIF
DUP
ROLL
DUP
ROLL
MD[grid]
ABS
ROLL
DUP
GC[cur]
DUP
ROUND[Grey]
SUB
ABS
PUSHB_1
 4
CINDEX
GC[cur]
DUP
ROUND[Grey]
SUB
ABS
GT
IF
SWAP
NEG
ROLL
EIF
MDAP[rnd]
DUP
PUSHB_1
 0
GTEQ
IF
ROUND[Black]
DUP
PUSHB_1
 0
EQ
IF
POP
PUSHB_1
 64
EIF
ELSE
ROUND[Black]
DUP
PUSHB_1
 0
EQ
IF
POP
PUSHB_1
 64
NEG
EIF
EIF
MSIRP[no-rp0]
ENDF
PUSHW_1
 4
FDEF
DUP
GC[cur]
PUSHB_1
 4
CINDEX
GC[cur]
GT
IF
SWAP
ROLL
EIF
DUP
GC[cur]
DUP
ROUND[White]
SUB
ABS
PUSHB_1
 4
CINDEX
GC[cur]
DUP
ROUND[White]
SUB
ABS
GT
IF
SWAP
ROLL
EIF
MDAP[rnd]

StartChar: .notdef
Encoding: 65536 -1 0
Width: 200
Flags: W
LayerCount: 2
Fore
SplineSet
0 170 m 1,0,-1
 100 170 l 1,1,-1
 100 499 l 1,2,-1
 0 499 l 1,3,-1
 0 170 l 1,0,-1
0 0 m 1,4,-1
 100 0 l 1,5,-1
 100 100 l 1,6,-1
 0 100 l 1,7,-1
 0 0 l 1,4,-1
EndSplineSet
EndChar

StartChar: FL0022h
Encoding: 34 34 2
Width: 400
Flags: W
LayerCount: 2
Fore
SplineSet
0 300 m 1,0,-1
 100 300 l 1,1,-1
 100 500 l 1,2,-1
 0 500 l 1,3,-1
 0 300 l 1,0,-1
200 300 m 1,4,-1
 300 300 l 1,5,-1
 300 500 l 1,6,-1
 200 500 l 1,7,-1
 200 300 l 1,4,-1
EndSplineSet
EndChar

StartChar: numbersign
Encoding: 35 35 3
Width: 556
Flags: W
LayerCount: 2
Fore
SplineSet
104 495 m 1,0,-1
 499 495 l 1,1,-1
 499 0 l 1,2,-1
 301 0 l 1,3,-1
 301 198 l 1,4,-1
 400 198 l 1,5,-1
 400 396 l 1,6,-1
 203 396 l 1,7,-1
 203 0 l 1,8,-1
 5 0 l 1,9,-1
 5 198 l 1,10,-1
 104 198 l 1,11,-1
 104 495 l 1,0,-1
EndSplineSet
EndChar

StartChar: FL0C39h
Encoding: 36 36 4
Width: 400
Flags: W
LayerCount: 2
Fore
SplineSet
100 291 m 1,0,-1
 100 389 l 1,1,-1
 300 389 l 1,2,-1
 300 486 l 1,3,-1
 200 486 l 1,4,-1
 200 584 l 1,5,-1
 100 584 l 1,6,-1
 100 486 l 1,7,-1
 0 486 l 1,8,-1
 0 193 l 1,9,-1
 200 193 l 1,10,-1
 200 95 l 1,11,-1
 0 95 l 1,12,-1
 0 -2 l 1,13,-1
 100 -2 l 1,14,-1
 100 -100 l 1,15,-1
 200 -100 l 1,16,-1
 200 -2 l 1,17,-1
 300 -2 l 1,18,-1
 300 291 l 1,19,-1
 100 291 l 1,0,-1
200 291 m 1,20,-1
 200 389 l 1,21,-1
 100 389 l 1,22,-1
 100 291 l 1,23,-1
 200 291 l 1,20,-1
202 94 m 1,24,-1
 202 194 l 1,25,-1
 102 194 l 1,26,-1
 102 94 l 1,27,-1
 202 94 l 1,24,-1
EndSplineSet
EndChar

StartChar: FL0024h
Encoding: 37 37 5
Width: 500
Flags: W
LayerCount: 2
Fore
SplineSet
0 300 m 1,0,-1
 100 300 l 1,1,-1
 100 400 l 1,2,-1
 0 400 l 1,3,-1
 0 300 l 1,0,-1
300 0 m 1,4,-1
 400 0 l 1,5,-1
 400 100 l 1,6,-1
 300 100 l 1,7,-1
 300 0 l 1,4,-1
0 0 m 1,8,-1
 100 0 l 1,9,-1
 100 100 l 1,10,-1
 0 100 l 1,11,-1
 0 0 l 1,8,-1
200 200 m 1,12,-1
 300 200 l 1,13,-1
 300 300 l 1,14,-1
 200 300 l 1,15,-1
 200 200 l 1,12,-1
200 100 m 1,16,-1
 200 200 l 1,17,-1
 100 200 l 1,18,-1
 100 100 l 1,19,-1
 200 100 l 1,16,-1
300 300 m 1,20,-1
 400 300 l 1,21,-1
 400 400 l 1,22,-1
 300 400 l 1,23,-1
 300 300 l 1,20,-1
EndSplineSet
EndChar

StartChar: FL0023h
Encoding: 38 38 6
Width: 400
Flags: W
LayerCount: 2
Fore
SplineSet
0 200 m 1,0,-1
 100 200 l 1,1,-1
 100 100 l 1,2,-1
 200 100 l 1,3,-1
 200 200 l 1,4,-1
 300 200 l 1,5,-1
 300 300 l 1,6,-1
 200 300 l 1,7,-1
 200 400 l 1,8,-1
 100 400 l 1,9,-1
 100 300 l 1,10,-1
 0 300 l 1,11,-1
 0 200 l 1,0,-1
EndSplineSet
EndChar

StartChar: FL0025h
Encoding: 39 39 7
Width: 200
Flags: W
LayerCount: 2
Fore
SplineSet
100 500 m 1,0,-1
 0 500 l 1,1,-1
 0 300 l 1,2,-1
 100 300 l 1,3,-1
 100 500 l 1,0,-1
EndSplineSet
EndChar

StartChar: FL0026h
Encoding: 40 40 8
Width: 300
Flags: W
LayerCount: 2
Fore
SplineSet
100 0 m 1,0,-1
 200 0 l 1,1,-1
 200 100 l 1,2,-1
 100 100 l 1,3,-1
 100 400 l 1,4,-1
 0 400 l 1,5,-1
 0 100 l 1,6,-1
 100 100 l 1,7,-1
 100 0 l 1,0,-1
100 400 m 1,8,-1
 200 400 l 1,9,-1
 200 500 l 1,10,-1
 100 500 l 1,11,-1
 100 400 l 1,8,-1
EndSplineSet
EndChar

StartChar: FL0027h
Encoding: 41 41 9
Width: 300
Flags: W
LayerCount: 2
Fore
SplineSet
100 0 m 1,0,-1
 0 0 l 1,1,-1
 0 100 l 1,2,-1
 100 100 l 1,3,-1
 100 400 l 1,4,-1
 200 400 l 1,5,-1
 200 100 l 1,6,-1
 100 100 l 1,7,-1
 100 0 l 1,0,-1
100 400 m 1,8,-1
 0 400 l 1,9,-1
 0 500 l 1,10,-1
 100 500 l 1,11,-1
 100 400 l 1,8,-1
EndSplineSet
EndChar

StartChar: FL0028h
Encoding: 42 42 10
Width: 769
Flags: W
LayerCount: 2
Fore
SplineSet
587 396 m 1,0,-1
 672 396 l 1,1,-1
 672 299 l 1,2,-1
 587 299 l 1,3,-1
 587 396 l 1,0,-1
587 201 m 1,4,-1
 491 201 l 1,5,-1
 491 104 l 1,6,-1
 395 104 l 1,7,-1
 395 6 l 1,8,-1
 299 6 l 1,9,-1
 299 104 l 1,10,-1
 203 104 l 1,11,-1
 203 201 l 1,12,-1
 107 201 l 1,13,-1
 107 299 l 1,14,-1
 11 299 l 1,15,-1
 11 396 l 1,16,-1
 107 396 l 1,17,-1
 107 494 l 1,18,-1
 299 494 l 1,19,-1
 299 396 l 1,20,-1
 395 396 l 1,21,-1
 395 494 l 1,22,-1
 587 494 l 1,23,-1
 587 201 l 1,4,-1
EndSplineSet
EndChar

StartChar: FL002Eh
Encoding: 43 43 11
Width: 400
Flags: W
LayerCount: 2
Fore
SplineSet
0 200 m 1,0,-1
 100 200 l 1,1,-1
 100 100 l 1,2,-1
 200 100 l 1,3,-1
 200 200 l 1,4,-1
 300 200 l 1,5,-1
 300 300 l 1,6,-1
 200 300 l 1,7,-1
 200 400 l 1,8,-1
 100 400 l 1,9,-1
 100 300 l 1,10,-1
 0 300 l 1,11,-1
 0 200 l 1,0,-1
EndSplineSet
EndChar

StartChar: FL002Ah
Encoding: 44 44 12
Width: 200
Flags: W
LayerCount: 2
Fore
SplineSet
0 -100 m 1,0,-1
 100 -100 l 1,1,-1
 100 100 l 1,2,-1
 0 100 l 1,3,-1
 0 -100 l 1,0,-1
EndSplineSet
EndChar

StartChar: FL002Bh
Encoding: 45 45 13
Width: 400
Flags: W
LayerCount: 2
Fore
SplineSet
0 200 m 1,0,-1
 300 200 l 1,1,-1
 300 300 l 1,2,-1
 0 300 l 1,3,-1
 0 200 l 1,0,-1
EndSplineSet
EndChar

StartChar: FL002Ch
Encoding: 46 46 14
Width: 200
Flags: W
LayerCount: 2
Fore
SplineSet
0 0 m 1,0,-1
 100 0 l 1,1,-1
 100 100 l 1,2,-1
 0 100 l 1,3,-1
 0 0 l 1,0,-1
EndSplineSet
EndChar

StartChar: FL002Dh
Encoding: 47 47 15
Width: 598
Flags: W
LayerCount: 2
Fore
SplineSet
0 100 m 1,0,-1
 0 0 l 1,1,-1
 100 0 l 1,2,-1
 100 100 l 1,3,-1
 0 100 l 1,0,-1
2 201 m 1,4,-1
 2 102 l 1,5,-1
 101 102 l 1,6,-1
 101 201 l 1,7,-1
 2 201 l 1,4,-1
101 303 m 1,8,-1
 101 202 l 1,9,-1
 202 202 l 1,10,-1
 202 303 l 1,11,-1
 101 303 l 1,8,-1
202 393 m 1,12,-1
 202 293 l 1,13,-1
 302 293 l 1,14,-1
 302 393 l 1,15,-1
 202 393 l 1,12,-1
202 496 m 1,16,-1
 202 397 l 1,17,-1
 300 397 l 1,18,-1
 300 496 l 1,19,-1
 202 496 l 1,16,-1
EndSplineSet
EndChar

StartChar: zero
Encoding: 48 48 16
Width: 400
Flags: W
LayerCount: 2
Fore
SplineSet
100 100 m 1,0,-1
 100 400 l 1,1,-1
 0 400 l 1,2,-1
 0 100 l 1,3,-1
 100 100 l 1,0,-1
200 400 m 1,4,-1
 200 100 l 1,5,-1
 300 100 l 1,6,-1
 300 400 l 1,7,-1
 200 400 l 1,4,-1
0 100 m 1,8,-1
 0 0 l 1,9,-1
 300 0 l 1,10,-1
 300 100 l 1,11,-1
 0 100 l 1,8,-1
300 400 m 1,12,-1
 300 500 l 1,13,-1
 0 500 l 1,14,-1
 0 400 l 1,15,-1
 300 400 l 1,12,-1
EndSplineSet
EndChar

StartChar: one
Encoding: 49 49 17
Width: 300
Flags: W
LayerCount: 2
Fore
SplineSet
0 0 m 1,0,-1
 100 0 l 1,1,-1
 100 500 l 1,2,-1
 0 500 l 1,3,-1
 0 0 l 1,0,-1
EndSplineSet
EndChar

StartChar: two
Encoding: 50 50 18
Width: 400
Flags: W
LayerCount: 2
Fore
SplineSet
300 0 m 1,0,-1
 300 100 l 1,1,-1
 100 100 l 1,2,-1
 100 200 l 1,3,-1
 0 200 l 1,4,-1
 0 0 l 1,5,-1
 300 0 l 1,0,-1
200 400 m 1,6,-1
 200 500 l 1,7,-1
 0 500 l 1,8,-1
 0 400 l 1,9,-1
 200 400 l 1,6,-1
300 200 m 1,10,-1
 300 300 l 1,11,-1
 0 300 l 1,12,-1
 0 200 l 1,13,-1
 300 200 l 1,10,-1
200 400 m 1,14,-1
 200 300 l 1,15,-1
 300 300 l 1,16,-1
 300 400 l 1,17,-1
 200 400 l 1,14,-1
200 500 m 1,18,-1
 200 400 l 1,19,-1
 300 400 l 1,20,-1
 300 500 l 1,21,-1
 200 500 l 1,18,-1
EndSplineSet
EndChar

StartChar: three
Encoding: 51 51 19
Width: 400
Flags: W
LayerCount: 2
Fore
SplineSet
200 200 m 1,0,-1
 200 300 l 1,1,-1
 0 300 l 1,2,-1
 0 200 l 1,3,-1
 200 200 l 1,4,-1
 200 100 l 1,5,-1
 300 100 l 1,6,-1
 300 200 l 1,7,-1
 200 200 l 1,0,-1
300 100 m 1,8,-1
 0 100 l 1,9,-1
 0 0 l 1,10,-1
 300 0 l 1,11,-1
 300 100 l 1,8,-1
200 400 m 1,12,-1
 200 500 l 1,13,-1
 0 500 l 1,14,-1
 0 400 l 1,15,-1
 200 400 l 1,12,-1
200 500 m 1,16,-1
 200 200 l 1,17,-1
 300 200 l 1,18,-1
 300 500 l 1,19,-1
 200 500 l 1,16,-1
EndSplineSet
EndChar

StartChar: four
Encoding: 52 52 20
Width: 400
Flags: W
LayerCount: 2
Fore
SplineSet
300 100 m 1,0,-1
 300 300 l 1,1,-1
 200 300 l 1,2,-1
 200 201 l 1,3,-1
 100 201 l 1,4,-1
 100 400 l 1,5,-1
 0 400 l 1,6,-1
 0 100 l 1,7,-1
 300 100 l 1,0,-1
200 100 m 1,8,-1
 200 -1 l 1,9,-1
 300 -1 l 1,10,-1
 300 100 l 1,11,-1
 200 100 l 1,8,-1
0 500 m 1,12,-1
 0 400 l 1,13,-1
 100 400 l 1,14,-1
 100 500 l 1,15,-1
 0 500 l 1,12,-1
200 400 m 1,16,-1
 200 300 l 1,17,-1
 300 300 l 1,18,-1
 300 400 l 1,19,-1
 200 400 l 1,16,-1
EndSplineSet
EndChar

StartChar: five
Encoding: 53 53 21
Width: 400
Flags: W
LayerCount: 2
Fore
SplineSet
300 300 m 1,0,-1
 100 300 l 1,1,-1
 100 400 l 1,2,-1
 300 400 l 1,3,-1
 300 500 l 1,4,-1
 0 500 l 1,5,-1
 0 200 l 1,6,-1
 200 200 l 1,7,-1
 200 100 l 1,8,-1
 300 100 l 1,9,-1
 300 300 l 1,0,-1
0 0 m 1,10,-1
 300 0 l 1,11,-1
 300 100 l 1,12,-1
 0 100 l 1,13,-1
 0 0 l 1,10,-1
EndSplineSet
EndChar

StartChar: six
Encoding: 54 54 22
Width: 400
Flags: W
LayerCount: 2
Fore
SplineSet
0 0 m 1,0,-1
 300 0 l 1,1,-1
 300 300 l 1,2,-1
 100 300 l 1,3,-1
 100 400 l 1,4,-1
 0 400 l 1,5,-1
 0 100 l 1,6,-1
 0 0 l 1,0,-1
300 400 m 1,7,-1
 300 500 l 1,8,-1
 0 500 l 1,9,-1
 0 400 l 1,10,-1
 300 400 l 1,7,-1
100 100 m 1,11,-1
 100 200 l 1,12,-1
 200 200 l 1,13,-1
 200 100 l 1,14,-1
 100 100 l 1,11,-1
EndSplineSet
EndChar

StartChar: seven
Encoding: 55 55 23
Width: 400
Flags: W
LayerCount: 2
Fore
SplineSet
200 0 m 1,0,-1
 300 0 l 1,1,-1
 300 500 l 1,2,-1
 0 500 l 1,3,-1
 0 400 l 1,4,-1
 200 400 l 1,5,-1
 200 0 l 1,0,-1
EndSplineSet
EndChar

StartChar: eight
Encoding: 56 56 24
Width: 400
Flags: W
LayerCount: 2
Fore
SplineSet
300 500 m 1,0,-1
 0 500 l 1,1,-1
 0 0 l 1,2,-1
 300 0 l 1,3,-1
 300 500 l 1,0,-1
200 100 m 1,4,-1
 100 100 l 1,5,-1
 100 200 l 1,6,-1
 200 200 l 1,7,-1
 200 100 l 1,4,-1
200 300 m 1,8,-1
 100 300 l 1,9,-1
 100 400 l 1,10,-1
 200 400 l 1,11,-1
 200 300 l 1,8,-1
EndSplineSet
EndChar

StartChar: nine
Encoding: 57 57 25
Width: 400
Flags: W
LayerCount: 2
Fore
SplineSet
300 500 m 1,0,-1
 0 500 l 1,1,-1
 0 200 l 1,2,-1
 200 200 l 1,3,-1
 200 100 l 1,4,-1
 0 100 l 1,5,-1
 0 0 l 1,6,-1
 300 0 l 1,7,-1
 300 500 l 1,0,-1
100 300 m 1,8,-1
 100 400 l 1,9,-1
 200 400 l 1,10,-1
 200 300 l 1,11,-1
 100 300 l 1,8,-1
EndSplineSet
EndChar

StartChar: FL0038h
Encoding: 58 58 26
Width: 200
Flags: W
LayerCount: 2
Fore
SplineSet
0 200 m 1,0,-1
 100 200 l 1,1,-1
 100 300 l 1,2,-1
 0 300 l 1,3,-1
 0 200 l 1,0,-1
0 0 m 1,4,-1
 100 0 l 1,5,-1
 100 100 l 1,6,-1
 0 100 l 1,7,-1
 0 0 l 1,4,-1
EndSplineSet
EndChar

StartChar: FL0039h
Encoding: 59 59 27
Width: 200
Flags: W
LayerCount: 2
Fore
SplineSet
0 -100 m 1,0,-1
 100 -100 l 1,1,-1
 100 100 l 1,2,-1
 0 100 l 1,3,-1
 0 -100 l 1,0,-1
0 200 m 1,4,-1
 100 200 l 1,5,-1
 100 300 l 1,6,-1
 0 300 l 1,7,-1
 0 200 l 1,4,-1
EndSplineSet
EndChar

StartChar: FL003Ah
Encoding: 60 60 28
Width: 400
Flags: W
LayerCount: 2
Fore
SplineSet
0 200 m 1,0,-1
 0 300 l 1,1,-1
 100 300 l 1,2,-1
 100 400 l 1,3,-1
 200 400 l 1,4,-1
 200 500 l 1,5,-1
 300 500 l 1,6,-1
 300 400 l 1,7,-1
 200 400 l 1,8,-1
 200 300 l 1,9,-1
 100 300 l 1,10,-1
 100 200 l 1,11,-1
 0 200 l 1,0,-1
100 100 m 1,12,-1
 100 200 l 1,13,-1
 200 200 l 1,14,-1
 200 100 l 1,15,-1
 100 100 l 1,12,-1
200 0 m 1,16,-1
 200 100 l 1,17,-1
 300 100 l 1,18,-1
 300 0 l 1,19,-1
 200 0 l 1,16,-1
EndSplineSet
EndChar

StartChar: FL003Bh
Encoding: 61 61 29
Width: 300
Flags: W
LayerCount: 2
Fore
SplineSet
0 100 m 1,0,-1
 200 100 l 1,1,-1
 200 200 l 1,2,-1
 0 200 l 1,3,-1
 0 100 l 1,0,-1
0 300 m 1,4,-1
 200 300 l 1,5,-1
 200 400 l 1,6,-1
 0 400 l 1,7,-1
 0 300 l 1,4,-1
EndSplineSet
EndChar

StartChar: FL003Ch
Encoding: 62 62 30
Width: 400
Flags: W
LayerCount: 2
Fore
SplineSet
300 200 m 1,0,-1
 300 300 l 1,1,-1
 200 300 l 1,2,-1
 200 400 l 1,3,-1
 100 400 l 1,4,-1
 100 500 l 1,5,-1
 0 500 l 1,6,-1
 0 400 l 1,7,-1
 100 400 l 1,8,-1
 100 300 l 1,9,-1
 200 300 l 1,10,-1
 200 200 l 1,11,-1
 300 200 l 1,0,-1
200 100 m 1,12,-1
 200 200 l 1,13,-1
 100 200 l 1,14,-1
 100 100 l 1,15,-1
 200 100 l 1,12,-1
100 0 m 1,16,-1
 100 100 l 1,17,-1
 0 100 l 1,18,-1
 0 0 l 1,19,-1
 100 0 l 1,16,-1
EndSplineSet
EndChar

StartChar: FL003Dh
Encoding: 63 63 31
Width: 400
Flags: W
LayerCount: 2
Fore
SplineSet
103 298 m 1,0,-1
 303 298 l 1,1,-1
 303 589 l 1,2,-1
 3 589 l 1,3,-1
 3 492 l 1,4,-1
 203 492 l 1,5,-1
 203 395 l 1,6,-1
 103 395 l 1,7,-1
 103 298 l 1,0,-1
100 303 m 1,8,-1
 100 394 l 1,9,-1
 0 394 l 1,10,-1
 0 303 l 1,11,-1
 100 303 l 1,8,-1
102 0 m 1,12,-1
 102 100 l 1,13,-1
 2 100 l 1,14,-1
 2 0 l 1,15,-1
 102 0 l 1,12,-1
101 201 m 1,16,-1
 101 301 l 1,17,-1
 1 301 l 1,18,-1
 1 201 l 1,19,-1
 101 201 l 1,16,-1
EndSplineSet
EndChar

StartChar: at
Encoding: 64 64 32
Width: 500
Flags: W
LayerCount: 2
Fore
SplineSet
101 500 m 1,0,-1
 0 500 l 1,1,-1
 0 0 l 1,2,-1
 300 0 l 1,3,-1
 300 100 l 1,4,-1
 101 100 l 1,5,-1
 101 500 l 1,0,-1
400 -1 m 1,6,-1
 400 100 l 1,7,-1
 300 100 l 1,8,-1
 300 -1 l 1,9,-1
 400 -1 l 1,6,-1
500 -1 m 1,10,-1
 500 100 l 1,11,-1
 400 100 l 1,12,-1
 400 -1 l 1,13,-1
 500 -1 l 1,10,-1
100 494 m 1,14,-1
 100 591 l 1,15,-1
 2 591 l 1,16,-1
 2 494 l 1,17,-1
 100 494 l 1,14,-1
500 -1 m 1,18,-1
 500 100 l 1,19,-1
 400 100 l 1,20,-1
 400 -1 l 1,21,-1
 500 -1 l 1,18,-1
200 493 m 1,22,-1
 200 587 l 1,23,-1
 100 587 l 1,24,-1
 100 493 l 1,25,-1
 200 493 l 1,22,-1
299 494 m 1,26,-1
 299 587 l 1,27,-1
 199 587 l 1,28,-1
 199 494 l 1,29,-1
 299 494 l 1,26,-1
400 494 m 1,30,-1
 400 586 l 1,31,-1
 300 586 l 1,32,-1
 300 494 l 1,33,-1
 400 494 l 1,30,-1
500 498 m 1,34,-1
 500 586 l 1,35,-1
 400 586 l 1,36,-1
 400 498 l 1,37,-1
 500 498 l 1,34,-1
500 400 m 1,38,-1
 500 498 l 1,39,-1
 400 498 l 1,40,-1
 400 400 l 1,41,-1
 500 400 l 1,38,-1
500 299 m 1,42,-1
 500 400 l 1,43,-1
 400 400 l 1,44,-1
 400 299 l 1,45,-1
 500 299 l 1,42,-1
500 200 m 1,46,-1
 500 299 l 1,47,-1
 400 299 l 1,48,-1
 400 200 l 1,49,-1
 500 200 l 1,46,-1
400 199 m 1,50,-1
 400 300 l 1,51,-1
 300 300 l 1,52,-1
 300 199 l 1,53,-1
 400 199 l 1,50,-1
300 199 m 1,54,-1
 300 300 l 1,55,-1
 200 300 l 1,56,-1
 200 199 l 1,57,-1
 300 199 l 1,54,-1
300 299 m 1,58,-1
 300 400 l 1,59,-1
 200 400 l 1,60,-1
 200 299 l 1,61,-1
 300 299 l 1,58,-1
EndSplineSet
EndChar

StartChar: A
Encoding: 65 65 33
Width: 400
Flags: W
LayerCount: 2
Fore
SplineSet
200 0 m 1,0,-1
 300 0 l 1,1,-1
 300 500 l 1,2,-1
 0 500 l 1,3,-1
 0 0 l 1,4,-1
 100 0 l 1,5,-1
 100 200 l 1,6,-1
 200 200 l 1,7,-1
 200 0 l 1,0,-1
100 400 m 1,8,-1
 200 400 l 1,9,-1
 200 300 l 1,10,-1
 100 300 l 1,11,-1
 100 400 l 1,8,-1
EndSplineSet
EndChar

StartChar: B
Encoding: 66 66 34
Width: 400
Flags: W
LayerCount: 2
Fore
SplineSet
200 300 m 1,0,-1
 300 300 l 1,1,-1
 300 500 l 1,2,-1
 0 500 l 1,3,-1
 0 0 l 1,4,-1
 300 0 l 1,5,-1
 300 200 l 1,6,-1
 200 200 l 1,7,-1
 200 300 l 1,8,-1
 100 300 l 1,9,-1
 100 400 l 1,10,-1
 200 400 l 1,11,-1
 200 300 l 1,0,-1
200 100 m 1,12,-1
 100 100 l 1,13,-1
 100 200 l 1,14,-1
 200 200 l 1,15,-1
 200 100 l 1,12,-1
EndSplineSet
EndChar

StartChar: C
Encoding: 67 67 35
Width: 400
Flags: W
LayerCount: 2
Fore
SplineSet
100 100 m 1,0,-1
 100 400 l 1,1,-1
 300 400 l 1,2,-1
 300 500 l 1,3,-1
 0 500 l 1,4,-1
 0 0 l 1,5,-1
 300 0 l 1,6,-1
 300 100 l 1,7,-1
 100 100 l 1,0,-1
EndSplineSet
EndChar

StartChar: D
Encoding: 68 68 36
Width: 400
Flags: W
LayerCount: 2
Fore
SplineSet
200 100 m 1,0,-1
 300 100 l 1,1,-1
 300 400 l 1,2,-1
 200 400 l 1,3,-1
 200 500 l 1,4,-1
 0 500 l 1,5,-1
 0 0 l 1,6,-1
 200 0 l 1,7,-1
 200 100 l 1,8,-1
 100 100 l 1,9,-1
 100 400 l 1,10,-1
 200 400 l 1,11,-1
 200 100 l 1,0,-1
EndSplineSet
EndChar

StartChar: E
Encoding: 69 69 37
Width: 400
Flags: W
LayerCount: 2
Fore
SplineSet
100 100 m 1,0,-1
 100 200 l 1,1,-1
 300 200 l 1,2,-1
 300 300 l 1,3,-1
 100 300 l 1,4,-1
 100 400 l 1,5,-1
 300 400 l 1,6,-1
 300 500 l 1,7,-1
 0 500 l 1,8,-1
 0 0 l 1,9,-1
 300 0 l 1,10,-1
 300 100 l 1,11,-1
 100 100 l 1,0,-1
EndSplineSet
EndChar

StartChar: F
Encoding: 70 70 38
Width: 400
Flags: W
LayerCount: 2
Fore
SplineSet
0 0 m 1,0,-1
 0 498 l 1,1,-1
 301 498 l 1,2,-1
 301 398 l 1,3,-1
 100 398 l 1,4,-1
 100 299 l 1,5,-1
 201 299 l 1,6,-1
 201 199 l 1,7,-1
 100 199 l 1,8,-1
 100 0 l 1,9,-1
 0 0 l 1,0,-1
EndSplineSet
EndChar

StartChar: G
Encoding: 71 71 39
Width: 400
Flags: W
LayerCount: 2
Fore
SplineSet
100 400 m 1,0,-1
 300 400 l 1,1,-1
 300 500 l 1,2,-1
 0 500 l 1,3,-1
 0 0 l 1,4,-1
 300 0 l 1,5,-1
 300 300 l 1,6,-1
 200 300 l 1,7,-1
 200 100 l 1,8,-1
 100 100 l 1,9,-1
 100 400 l 1,0,-1
EndSplineSet
EndChar

StartChar: H
Encoding: 72 72 40
Width: 400
Flags: W
LayerCount: 2
Fore
SplineSet
300 0 m 1,0,-1
 300 500 l 1,1,-1
 200 500 l 1,2,-1
 200 300 l 1,3,-1
 100 300 l 1,4,-1
 100 499 l 1,5,-1
 0 499 l 1,6,-1
 0 0 l 1,7,-1
 100 0 l 1,8,-1
 100 200 l 1,9,-1
 200 200 l 1,10,-1
 200 0 l 1,11,-1
 300 0 l 1,0,-1
EndSplineSet
EndChar

StartChar: glyph41
Encoding: 73 73 41
Width: 202
Flags: W
LayerCount: 2
Fore
SplineSet
2 0 m 1,0,-1
 102 0 l 1,1,-1
 102 500 l 1,2,-1
 2 500 l 1,3,-1
 2 0 l 1,0,-1
EndSplineSet
EndChar

StartChar: glyph42
Encoding: 74 74 42
Width: 400
Flags: W
LayerCount: 2
Fore
SplineSet
0 100 m 1,0,-1
 0 0 l 1,1,-1
 300 0 l 1,2,-1
 300 500 l 1,3,-1
 200 500 l 1,4,-1
 200 100 l 1,5,-1
 0 100 l 1,0,-1
EndSplineSet
EndChar

StartChar: I
Encoding: 75 75 43
Width: 400
Flags: W
LayerCount: 2
Fore
SplineSet
200 200 m 1,0,-1
 200 300 l 1,1,-1
 100 300 l 1,2,-1
 100 500 l 1,3,-1
 0 500 l 1,4,-1
 0 0 l 1,5,-1
 100 0 l 1,6,-1
 100 200 l 1,7,-1
 200 200 l 1,8,-1
 200 0 l 1,9,-1
 300 0 l 1,10,-1
 300 200 l 1,11,-1
 200 200 l 1,0,-1
300 500 m 1,12,-1
 200 500 l 1,13,-1
 200 300 l 1,14,-1
 300 300 l 1,15,-1
 300 500 l 1,12,-1
EndSplineSet
EndChar

StartChar: J
Encoding: 76 76 44
Width: 400
Flags: W
LayerCount: 2
Fore
SplineSet
0 399 m 1,0,-1
 0 0 l 1,1,-1
 300 0 l 1,2,-1
 300 100 l 1,3,-1
 100 100 l 1,4,-1
 100 399 l 1,5,-1
 0 399 l 1,0,-1
100 399 m 1,6,-1
 100 500 l 1,7,-1
 0 500 l 1,8,-1
 0 399 l 1,9,-1
 100 399 l 1,6,-1
EndSplineSet
EndChar

StartChar: K
Encoding: 77 77 45
Width: 550
Flags: W
LayerCount: 2
Fore
SplineSet
199 99 m 1,0,-1
 199 398 l 1,1,-1
 299 398 l 1,2,-1
 299 99 l 1,3,-1
 199 99 l 1,0,-1
0 0 m 1,4,-1
 0 498 l 1,5,-1
 199 498 l 1,6,-1
 199 398 l 1,7,-1
 100 398 l 1,8,-1
 100 0 l 1,9,-1
 0 0 l 1,4,-1
398 0 m 1,10,-1
 398 398 l 1,11,-1
 299 398 l 1,12,-1
 299 498 l 1,13,-1
 498 498 l 1,14,-1
 498 0 l 1,15,-1
 398 0 l 1,10,-1
EndSplineSet
EndChar

StartChar: L
Encoding: 78 78 46
Width: 400
Flags: W
LayerCount: 2
Fore
SplineSet
200 0 m 1,0,-1
 300 0 l 1,1,-1
 300 500 l 1,2,-1
 200 500 l 1,3,-1
 0 500 l 1,4,-1
 0 0 l 1,5,-1
 100 0 l 1,6,-1
 100 400 l 1,7,-1
 200 400 l 1,8,-1
 200 0 l 1,0,-1
EndSplineSet
EndChar

StartChar: M
Encoding: 79 79 47
Width: 400
Flags: W
LayerCount: 2
Fore
SplineSet
0 0 m 1,0,-1
 300 0 l 1,1,-1
 300 500 l 1,2,-1
 0 500 l 1,3,-1
 0 0 l 1,0,-1
100 100 m 1,4,-1
 100 400 l 1,5,-1
 200 400 l 1,6,-1
 200 100 l 1,7,-1
 100 100 l 1,4,-1
EndSplineSet
EndChar

StartChar: N
Encoding: 80 80 48
Width: 400
Flags: W
LayerCount: 2
Fore
SplineSet
0 0 m 1,0,-1
 100 0 l 1,1,-1
 100 200 l 1,2,-1
 300 200 l 1,3,-1
 300 500 l 1,4,-1
 0 500 l 1,5,-1
 0 0 l 1,0,-1
100 300 m 1,6,-1
 100 400 l 1,7,-1
 200 400 l 1,8,-1
 200 300 l 1,9,-1
 100 300 l 1,6,-1
EndSplineSet
EndChar

StartChar: O
Encoding: 81 81 49
Width: 400
Flags: W
LayerCount: 2
Fore
SplineSet
305 500 m 1,0,-1
 -1 500 l 1,1,-1
 -1 200 l 1,2,-1
 203 200 l 1,3,-1
 203 0 l 1,4,-1
 305 0 l 1,5,-1
 305 500 l 1,0,-1
105 300 m 1,6,-1
 105 400 l 1,7,-1
 205 400 l 1,8,-1
 205 300 l 1,9,-1
 105 300 l 1,6,-1
EndSplineSet
EndChar

StartChar: P
Encoding: 82 82 50
Width: 400
Flags: WO
LayerCount: 2
Fore
SplineSet
200 200 m 1,0,-1
 200 300 l 1,1,-1
 100 300 l 1,2,-1
 100 400 l 1,3,-1
 200 400 l 1,4,-1
 200 300 l 1,5,-1
 300 300 l 1,6,-1
 300 500 l 1,7,-1
 0 500 l 1,8,-1
 0 0 l 1,9,-1
 100 0 l 1,10,-1
 100 200 l 1,11,-1
 200 200 l 1,0,-1
200 200 m 1,12,-1
 200 0 l 1,13,-1
 300 0 l 1,14,-1
 300 200 l 1,15,-1
 200 200 l 1,12,-1
EndSplineSet
EndChar

StartChar: Q
Encoding: 83 83 51
Width: 400
Flags: W
LayerCount: 2
Fore
SplineSet
0 0 m 1,0,-1
 300 0 l 1,1,-1
 300 300 l 1,2,-1
 100 300 l 1,3,-1
 100 400 l 1,4,-1
 300 400 l 1,5,-1
 300 500 l 1,6,-1
 0 500 l 1,7,-1
 0 200 l 1,8,-1
 200 200 l 1,9,-1
 200 100 l 1,10,-1
 0 100 l 1,11,-1
 0 0 l 1,0,-1
EndSplineSet
EndChar

StartChar: R
Encoding: 84 84 52
Width: 400
Flags: W
LayerCount: 2
Fore
SplineSet
0 400 m 1,0,-1
 100 400 l 1,1,-1
 100 0 l 1,2,-1
 200 0 l 1,3,-1
 200 400 l 1,4,-1
 300 400 l 1,5,-1
 300 500 l 1,6,-1
 0 500 l 1,7,-1
 0 400 l 1,0,-1
EndSplineSet
EndChar

StartChar: S
Encoding: 85 85 53
Width: 400
Flags: W
LayerCount: 2
Fore
SplineSet
200 399 m 1,0,-1
 200 100 l 1,1,-1
 100 100 l 1,2,-1
 100 500 l 1,3,-1
 0 500 l 1,4,-1
 0 0 l 1,5,-1
 300 0 l 1,6,-1
 300 399 l 1,7,-1
 200 399 l 1,0,-1
303 399 m 1,8,-1
 303 500 l 1,9,-1
 203 500 l 1,10,-1
 203 399 l 1,11,-1
 303 399 l 1,8,-1
EndSplineSet
EndChar

StartChar: glyph54
Encoding: 86 86 54
Width: 400
Flags: W
LayerCount: 2
Fore
SplineSet
100 0 m 1,0,-1
 200 0 l 1,1,-1
 200 100 l 1,2,-1
 100 100 l 1,3,-1
 100 500 l 1,4,-1
 0 500 l 1,5,-1
 0 100 l 1,6,-1
 100 100 l 1,7,-1
 100 0 l 1,0,-1
200 399 m 1,8,-1
 200 100 l 1,9,-1
 300 100 l 1,10,-1
 300 399 l 1,11,-1
 200 399 l 1,8,-1
300 399 m 1,12,-1
 300 500 l 1,13,-1
 200 500 l 1,14,-1
 200 399 l 1,15,-1
 300 399 l 1,12,-1
EndSplineSet
EndChar

StartChar: T
Encoding: 87 87 55
Width: 550
Flags: W
LayerCount: 2
Fore
SplineSet
299 299 m 1,0,-1
 299 99 l 1,1,-1
 199 99 l 1,2,-1
 199 299 l 1,3,-1
 299 299 l 1,0,-1
100 498 m 1,4,-1
 100 99 l 1,5,-1
 199 99 l 1,6,-1
 199 -1 l 1,7,-1
 0 -1 l 1,8,-1
 0 498 l 1,9,-1
 100 498 l 1,4,-1
498 498 m 1,10,-1
 498 -1 l 1,11,-1
 299 -1 l 1,12,-1
 299 99 l 1,13,-1
 398 99 l 1,14,-1
 398 498 l 1,15,-1
 498 498 l 1,10,-1
EndSplineSet
EndChar

StartChar: U
Encoding: 88 88 56
Width: 400
Flags: W
LayerCount: 2
Fore
SplineSet
200 200 m 1,0,-1
 200 300 l 1,1,-1
 100 300 l 1,2,-1
 100 500 l 1,3,-1
 0 500 l 1,4,-1
 0 300 l 1,5,-1
 100 300 l 1,6,-1
 100 200 l 1,7,-1
 200 200 l 1,0,-1
200 200 m 1,8,-1
 200 0 l 1,9,-1
 300 0 l 1,10,-1
 300 200 l 1,11,-1
 200 200 l 1,8,-1
100 0 m 1,12,-1
 100 200 l 1,13,-1
 0 200 l 1,14,-1
 0 0 l 1,15,-1
 100 0 l 1,12,-1
300 500 m 1,16,-1
 200 500 l 1,17,-1
 200 300 l 1,18,-1
 300 300 l 1,19,-1
 300 500 l 1,16,-1
EndSplineSet
EndChar

StartChar: V
Encoding: 89 89 57
Width: 400
Flags: W
LayerCount: 2
Fore
SplineSet
201 200 m 1,0,-1
 201 0 l 1,1,-1
 301 0 l 1,2,-1
 301 200 l 1,3,-1
 201 200 l 1,0,-1
300 200 m 1,4,-1
 300 500 l 1,5,-1
 200 500 l 1,6,-1
 200 300 l 1,7,-1
 100 300 l 1,8,-1
 100 500 l 1,9,-1
 0 500 l 1,10,-1
 0 200 l 1,11,-1
 300 200 l 1,4,-1
0 101 m 1,12,-1
 0 0 l 1,13,-1
 201 0 l 1,14,-1
 201 101 l 1,15,-1
 0 101 l 1,12,-1
EndSplineSet
EndChar

StartChar: W
Encoding: 90 90 58
Width: 400
Flags: W
LayerCount: 2
Fore
SplineSet
300 300 m 1,0,-1
 300 499 l 1,1,-1
 0 499 l 1,2,-1
 0 399 l 1,3,-1
 200 399 l 1,4,-1
 200 300 l 1,5,-1
 300 300 l 1,0,-1
200 300 m 1,6,-1
 100 300 l 1,7,-1
 100 200 l 1,8,-1
 200 200 l 1,9,-1
 200 300 l 1,6,-1
0 199 m 1,10,-1
 0 0 l 1,11,-1
 300 0 l 1,12,-1
 300 100 l 1,13,-1
 100 100 l 1,14,-1
 100 199 l 1,15,-1
 0 199 l 1,10,-1
EndSplineSet
EndChar

StartChar: bracketleft
Encoding: 91 91 59
Width: 300
Flags: W
LayerCount: 2
Fore
SplineSet
0 0 m 1,0,-1
 0 500 l 1,1,-1
 200 500 l 1,2,-1
 200 400 l 1,3,-1
 100 400 l 1,4,-1
 100 99 l 1,5,-1
 200 99 l 1,6,-1
 200 0 l 1,7,-1
 0 0 l 1,0,-1
EndSplineSet
EndChar

StartChar: FL005Ch
Encoding: 92 92 60
Width: 598
Flags: W
LayerCount: 2
Fore
SplineSet
302 100 m 1,0,-1
 302 0 l 1,1,-1
 202 0 l 1,2,-1
 202 100 l 1,3,-1
 302 100 l 1,0,-1
300 199 m 1,4,-1
 300 100 l 1,5,-1
 201 100 l 1,6,-1
 201 199 l 1,7,-1
 300 199 l 1,4,-1
201 300 m 1,8,-1
 201 199 l 1,9,-1
 100 199 l 1,10,-1
 100 300 l 1,11,-1
 201 300 l 1,8,-1
100 400 m 1,12,-1
 100 300 l 1,13,-1
 0 300 l 1,14,-1
 0 400 l 1,15,-1
 100 400 l 1,12,-1
98 499 m 1,16,-1
 98 400 l 1,17,-1
 0 400 l 1,18,-1
 0 499 l 1,19,-1
 98 499 l 1,16,-1
EndSplineSet
EndChar

StartChar: bracketright
Encoding: 93 93 61
Width: 300
Flags: W
LayerCount: 2
Fore
SplineSet
200 0 m 1,0,-1
 0 0 l 1,1,-1
 0 99 l 1,2,-1
 100 99 l 1,3,-1
 100 400 l 1,4,-1
 0 400 l 1,5,-1
 0 500 l 1,6,-1
 200 500 l 1,7,-1
 200 0 l 1,0,-1
EndSplineSet
EndChar

StartChar: underscore
Encoding: 95 95 62
Width: 393
Flags: W
LayerCount: 2
Fore
SplineSet
0 0 m 1,0,-1
 0 64 l 1,1,-1
 301 64 l 1,2,-1
 301 0 l 1,3,-1
 0 0 l 1,0,-1
EndSplineSet
EndChar

StartChar: FL0061h
Encoding: 97 97 63
Width: 400
Flags: W
LayerCount: 2
Fore
SplineSet
200 0 m 1,0,-1
 300 0 l 1,1,-1
 300 500 l 1,2,-1
 0 500 l 1,3,-1
 0 0 l 1,4,-1
 100 0 l 1,5,-1
 100 200 l 1,6,-1
 200 200 l 1,7,-1
 200 0 l 1,0,-1
100 400 m 1,8,-1
 200 400 l 1,9,-1
 200 300 l 1,10,-1
 100 300 l 1,11,-1
 100 400 l 1,8,-1
EndSplineSet
EndChar

StartChar: FL0062h
Encoding: 98 98 64
Width: 400
Flags: W
LayerCount: 2
Fore
SplineSet
200 300 m 1,0,-1
 300 300 l 1,1,-1
 300 500 l 1,2,-1
 0 500 l 1,3,-1
 0 0 l 1,4,-1
 300 0 l 1,5,-1
 300 200 l 1,6,-1
 200 200 l 1,7,-1
 200 300 l 1,8,-1
 100 300 l 1,9,-1
 100 400 l 1,10,-1
 200 400 l 1,11,-1
 200 300 l 1,0,-1
200 100 m 1,12,-1
 100 100 l 1,13,-1
 100 200 l 1,14,-1
 200 200 l 1,15,-1
 200 100 l 1,12,-1
EndSplineSet
EndChar

StartChar: FL0063h
Encoding: 99 99 65
Width: 400
Flags: W
LayerCount: 2
Fore
SplineSet
100 100 m 1,0,-1
 100 400 l 1,1,-1
 300 400 l 1,2,-1
 300 500 l 1,3,-1
 0 500 l 1,4,-1
 0 0 l 1,5,-1
 300 0 l 1,6,-1
 300 100 l 1,7,-1
 100 100 l 1,0,-1
EndSplineSet
EndChar

StartChar: FL0064h
Encoding: 100 100 66
Width: 400
Flags: W
LayerCount: 2
Fore
SplineSet
200 100 m 1,0,-1
 300 100 l 1,1,-1
 300 400 l 1,2,-1
 200 400 l 1,3,-1
 200 500 l 1,4,-1
 0 500 l 1,5,-1
 0 0 l 1,6,-1
 200 0 l 1,7,-1
 200 100 l 1,8,-1
 100 100 l 1,9,-1
 100 400 l 1,10,-1
 200 400 l 1,11,-1
 200 100 l 1,0,-1
EndSplineSet
EndChar

StartChar: FL0065h
Encoding: 101 101 67
Width: 400
Flags: W
LayerCount: 2
Fore
SplineSet
100 100 m 1,0,-1
 100 200 l 1,1,-1
 300 200 l 1,2,-1
 300 300 l 1,3,-1
 100 300 l 1,4,-1
 100 400 l 1,5,-1
 300 400 l 1,6,-1
 300 500 l 1,7,-1
 0 500 l 1,8,-1
 0 0 l 1,9,-1
 300 0 l 1,10,-1
 300 100 l 1,11,-1
 100 100 l 1,0,-1
EndSplineSet
EndChar

StartChar: FL0066h
Encoding: 102 102 68
Width: 400
Flags: W
LayerCount: 2
Fore
SplineSet
0 0 m 1,0,-1
 0 498 l 1,1,-1
 301 498 l 1,2,-1
 301 398 l 1,3,-1
 100 398 l 1,4,-1
 100 299 l 1,5,-1
 201 299 l 1,6,-1
 201 199 l 1,7,-1
 100 199 l 1,8,-1
 100 0 l 1,9,-1
 0 0 l 1,0,-1
EndSplineSet
EndChar

StartChar: FL0067h
Encoding: 103 103 69
Width: 400
Flags: W
LayerCount: 2
Fore
SplineSet
100 400 m 1,0,-1
 300 400 l 1,1,-1
 300 500 l 1,2,-1
 0 500 l 1,3,-1
 0 0 l 1,4,-1
 300 0 l 1,5,-1
 300 300 l 1,6,-1
 200 300 l 1,7,-1
 200 100 l 1,8,-1
 100 100 l 1,9,-1
 100 400 l 1,0,-1
EndSplineSet
EndChar

StartChar: FL0068h
Encoding: 104 104 70
Width: 400
Flags: W
LayerCount: 2
Fore
SplineSet
300 0 m 1,0,-1
 300 500 l 1,1,-1
 200 500 l 1,2,-1
 200 300 l 1,3,-1
 100 300 l 1,4,-1
 100 499 l 1,5,-1
 0 499 l 1,6,-1
 0 0 l 1,7,-1
 100 0 l 1,8,-1
 100 200 l 1,9,-1
 200 200 l 1,10,-1
 200 0 l 1,11,-1
 300 0 l 1,0,-1
EndSplineSet
EndChar

StartChar: FL0069h
Encoding: 105 105 71
Width: 202
Flags: W
LayerCount: 2
Fore
SplineSet
1 -1 m 1,0,-1
 101 -1 l 1,1,-1
 101 499 l 1,2,-1
 1 499 l 1,3,-1
 1 -1 l 1,0,-1
EndSplineSet
EndChar

StartChar: FL006Ah
Encoding: 106 106 72
Width: 400
Flags: W
LayerCount: 2
Fore
SplineSet
0 100 m 1,0,-1
 0 0 l 1,1,-1
 300 0 l 1,2,-1
 300 500 l 1,3,-1
 200 500 l 1,4,-1
 200 100 l 1,5,-1
 0 100 l 1,0,-1
EndSplineSet
EndChar

StartChar: FL006Bh
Encoding: 107 107 73
Width: 400
Flags: W
LayerCount: 2
Fore
SplineSet
200 200 m 1,0,-1
 200 300 l 1,1,-1
 100 300 l 1,2,-1
 100 500 l 1,3,-1
 0 500 l 1,4,-1
 0 0 l 1,5,-1
 100 0 l 1,6,-1
 100 200 l 1,7,-1
 200 200 l 1,8,-1
 200 0 l 1,9,-1
 300 0 l 1,10,-1
 300 200 l 1,11,-1
 200 200 l 1,0,-1
300 500 m 1,12,-1
 200 500 l 1,13,-1
 200 300 l 1,14,-1
 300 300 l 1,15,-1
 300 500 l 1,12,-1
EndSplineSet
EndChar

StartChar: FL006Ch
Encoding: 108 108 74
Width: 400
Flags: W
LayerCount: 2
Fore
SplineSet
0 399 m 1,0,-1
 0 0 l 1,1,-1
 300 0 l 1,2,-1
 300 100 l 1,3,-1
 100 100 l 1,4,-1
 100 399 l 1,5,-1
 0 399 l 1,0,-1
100 399 m 1,6,-1
 100 500 l 1,7,-1
 0 500 l 1,8,-1
 0 399 l 1,9,-1
 100 399 l 1,6,-1
EndSplineSet
EndChar

StartChar: FL006Dh
Encoding: 109 109 75
Width: 550
Flags: W
LayerCount: 2
Fore
SplineSet
199 99 m 1,0,-1
 199 398 l 1,1,-1
 299 398 l 1,2,-1
 299 99 l 1,3,-1
 199 99 l 1,0,-1
0 0 m 1,4,-1
 0 498 l 1,5,-1
 199 498 l 1,6,-1
 199 398 l 1,7,-1
 100 398 l 1,8,-1
 100 0 l 1,9,-1
 0 0 l 1,4,-1
398 0 m 1,10,-1
 398 398 l 1,11,-1
 299 398 l 1,12,-1
 299 498 l 1,13,-1
 498 498 l 1,14,-1
 498 0 l 1,15,-1
 398 0 l 1,10,-1
EndSplineSet
EndChar

StartChar: FL006Eh
Encoding: 110 110 76
Width: 400
Flags: W
LayerCount: 2
Fore
SplineSet
200 0 m 1,0,-1
 300 0 l 1,1,-1
 300 500 l 1,2,-1
 200 500 l 1,3,-1
 0 500 l 1,4,-1
 0 0 l 1,5,-1
 100 0 l 1,6,-1
 100 400 l 1,7,-1
 200 400 l 1,8,-1
 200 0 l 1,0,-1
EndSplineSet
EndChar

StartChar: FL006Fh
Encoding: 111 111 77
Width: 400
Flags: W
LayerCount: 2
Fore
SplineSet
0 0 m 1,0,-1
 300 0 l 1,1,-1
 300 500 l 1,2,-1
 0 500 l 1,3,-1
 0 0 l 1,0,-1
100 100 m 1,4,-1
 100 400 l 1,5,-1
 200 400 l 1,6,-1
 200 100 l 1,7,-1
 100 100 l 1,4,-1
EndSplineSet
EndChar

StartChar: FL0070h
Encoding: 112 112 78
Width: 400
Flags: W
LayerCount: 2
Fore
SplineSet
0 0 m 1,0,-1
 100 0 l 1,1,-1
 100 200 l 1,2,-1
 300 200 l 1,3,-1
 300 500 l 1,4,-1
 0 500 l 1,5,-1
 0 0 l 1,0,-1
100 300 m 1,6,-1
 100 400 l 1,7,-1
 200 400 l 1,8,-1
 200 300 l 1,9,-1
 100 300 l 1,6,-1
EndSplineSet
EndChar

StartChar: FL0071h
Encoding: 113 113 79
Width: 400
Flags: W
LayerCount: 2
Fore
SplineSet
305 500 m 1,0,-1
 -1 500 l 1,1,-1
 -1 200 l 1,2,-1
 203 200 l 1,3,-1
 203 0 l 1,4,-1
 305 0 l 1,5,-1
 305 500 l 1,0,-1
105 300 m 1,6,-1
 105 400 l 1,7,-1
 205 400 l 1,8,-1
 205 300 l 1,9,-1
 105 300 l 1,6,-1
EndSplineSet
EndChar

StartChar: FL0072h
Encoding: 114 114 80
Width: 400
Flags: W
LayerCount: 2
Fore
SplineSet
200 200 m 1,0,-1
 200 300 l 1,1,-1
 100 300 l 1,2,-1
 100 400 l 1,3,-1
 200 400 l 1,4,-1
 200 300 l 1,5,-1
 300 300 l 1,6,-1
 300 500 l 1,7,-1
 0 500 l 1,8,-1
 0 0 l 1,9,-1
 100 0 l 1,10,-1
 100 200 l 1,11,-1
 200 200 l 1,0,-1
200 200 m 1,12,-1
 200 0 l 1,13,-1
 300 0 l 1,14,-1
 300 200 l 1,15,-1
 200 200 l 1,12,-1
EndSplineSet
EndChar

StartChar: FL0073h
Encoding: 115 115 81
Width: 400
Flags: W
LayerCount: 2
Fore
SplineSet
0 0 m 1,0,-1
 300 0 l 1,1,-1
 300 300 l 1,2,-1
 100 300 l 1,3,-1
 100 400 l 1,4,-1
 300 400 l 1,5,-1
 300 500 l 1,6,-1
 0 500 l 1,7,-1
 0 200 l 1,8,-1
 200 200 l 1,9,-1
 200 100 l 1,10,-1
 0 100 l 1,11,-1
 0 0 l 1,0,-1
EndSplineSet
EndChar

StartChar: FL0074h
Encoding: 116 116 82
Width: 400
Flags: W
LayerCount: 2
Fore
SplineSet
0 400 m 1,0,-1
 100 400 l 1,1,-1
 100 0 l 1,2,-1
 200 0 l 1,3,-1
 200 400 l 1,4,-1
 300 400 l 1,5,-1
 300 500 l 1,6,-1
 0 500 l 1,7,-1
 0 400 l 1,0,-1
EndSplineSet
EndChar

StartChar: FL0075h
Encoding: 117 117 83
Width: 400
Flags: W
LayerCount: 2
Fore
SplineSet
100 100 m 1,0,-1
 100 500 l 1,1,-1
 0 500 l 1,2,-1
 0 0 l 1,3,-1
 300 0 l 1,4,-1
 300 500 l 1,5,-1
 200 500 l 1,6,-1
 200 100 l 1,7,-1
 100 100 l 1,0,-1
EndSplineSet
EndChar

StartChar: FL0076h
Encoding: 118 118 84
Width: 400
Flags: W
LayerCount: 2
Fore
SplineSet
100 0 m 1,0,-1
 200 0 l 1,1,-1
 200 100 l 1,2,-1
 100 100 l 1,3,-1
 100 500 l 1,4,-1
 0 500 l 1,5,-1
 0 100 l 1,6,-1
 100 100 l 1,7,-1
 100 0 l 1,0,-1
200 399 m 1,8,-1
 200 100 l 1,9,-1
 300 100 l 1,10,-1
 300 399 l 1,11,-1
 200 399 l 1,8,-1
300 399 m 1,12,-1
 300 500 l 1,13,-1
 200 500 l 1,14,-1
 200 399 l 1,15,-1
 300 399 l 1,12,-1
EndSplineSet
EndChar

StartChar: FL0077h
Encoding: 119 119 85
Width: 550
Flags: W
LayerCount: 2
Fore
SplineSet
299 299 m 1,0,-1
 299 99 l 1,1,-1
 199 99 l 1,2,-1
 199 299 l 1,3,-1
 299 299 l 1,0,-1
100 498 m 1,4,-1
 100 99 l 1,5,-1
 199 99 l 1,6,-1
 199 -1 l 1,7,-1
 0 -1 l 1,8,-1
 0 498 l 1,9,-1
 100 498 l 1,4,-1
498 498 m 1,10,-1
 498 -1 l 1,11,-1
 299 -1 l 1,12,-1
 299 99 l 1,13,-1
 398 99 l 1,14,-1
 398 498 l 1,15,-1
 498 498 l 1,10,-1
EndSplineSet
EndChar

StartChar: FL0078h
Encoding: 120 120 86
Width: 400
Flags: W
LayerCount: 2
Fore
SplineSet
200 200 m 1,0,-1
 200 300 l 1,1,-1
 100 300 l 1,2,-1
 100 500 l 1,3,-1
 0 500 l 1,4,-1
 0 300 l 1,5,-1
 100 300 l 1,6,-1
 100 200 l 1,7,-1
 200 200 l 1,0,-1
200 200 m 1,8,-1
 200 0 l 1,9,-1
 300 0 l 1,10,-1
 300 200 l 1,11,-1
 200 200 l 1,8,-1
100 0 m 1,12,-1
 100 200 l 1,13,-1
 0 200 l 1,14,-1
 0 0 l 1,15,-1
 100 0 l 1,12,-1
300 500 m 1,16,-1
 200 500 l 1,17,-1
 200 300 l 1,18,-1
 300 300 l 1,19,-1
 300 500 l 1,16,-1
EndSplineSet
EndChar

StartChar: FL0079h
Encoding: 121 121 87
Width: 400
Flags: W
LayerCount: 2
Fore
SplineSet
201 200 m 1,0,-1
 201 0 l 1,1,-1
 301 0 l 1,2,-1
 301 200 l 1,3,-1
 201 200 l 1,0,-1
300 200 m 1,4,-1
 300 500 l 1,5,-1
 200 500 l 1,6,-1
 200 300 l 1,7,-1
 100 300 l 1,8,-1
 100 500 l 1,9,-1
 0 500 l 1,10,-1
 0 200 l 1,11,-1
 300 200 l 1,4,-1
0 101 m 1,12,-1
 0 0 l 1,13,-1
 201 0 l 1,14,-1
 201 101 l 1,15,-1
 0 101 l 1,12,-1
EndSplineSet
EndChar

StartChar: FL007Ah
Encoding: 122 122 88
Width: 400
Flags: W
LayerCount: 2
Fore
SplineSet
300 300 m 1,0,-1
 300 499 l 1,1,-1
 0 499 l 1,2,-1
 0 399 l 1,3,-1
 200 399 l 1,4,-1
 200 300 l 1,5,-1
 300 300 l 1,0,-1
200 300 m 1,6,-1
 100 300 l 1,7,-1
 100 200 l 1,8,-1
 200 200 l 1,9,-1
 200 300 l 1,6,-1
0 199 m 1,10,-1
 0 0 l 1,11,-1
 300 0 l 1,12,-1
 300 100 l 1,13,-1
 100 100 l 1,14,-1
 100 199 l 1,15,-1
 0 199 l 1,10,-1
EndSplineSet
EndChar

StartChar: bar
Encoding: 124 124 89
Width: 200
Flags: W
LayerCount: 2
Fore
SplineSet
0 -100 m 1,0,-1
 100 -100 l 1,1,-1
 100 600 l 1,2,-1
 0 600 l 1,3,-1
 0 -100 l 1,0,-1
EndSplineSet
EndChar

StartChar: asciitilde
Encoding: 126 126 90
Width: 499
Flags: W
LayerCount: 2
Fore
SplineSet
1 195 m 1,0,-1
 1 304 l 1,1,-1
 101 304 l 1,2,-1
 101 195 l 1,3,-1
 1 195 l 1,0,-1
101 302 m 1,4,-1
 101 402 l 1,5,-1
 201 402 l 1,6,-1
 201 302 l 1,7,-1
 101 302 l 1,4,-1
202 201 m 1,8,-1
 202 301 l 1,9,-1
 301 301 l 1,10,-1
 301 201 l 1,11,-1
 202 201 l 1,8,-1
300 299 m 1,12,-1
 300 399 l 1,13,-1
 401 399 l 1,14,-1
 401 299 l 1,15,-1
 300 299 l 1,12,-1
EndSplineSet
EndChar

StartChar: FL00C4h
Encoding: 196 196 91
Width: 400
Flags: W
LayerCount: 2
Fore
SplineSet
200 0 m 1,0,-1
 200 200 l 1,1,-1
 100 200 l 1,2,-1
 100 0 l 1,3,-1
 0 0 l 1,4,-1
 0 500 l 1,5,-1
 300 500 l 1,6,-1
 300 0 l 1,7,-1
 200 0 l 1,0,-1
100 400 m 1,8,-1
 100 300 l 1,9,-1
 200 300 l 1,10,-1
 200 400 l 1,11,-1
 100 400 l 1,8,-1
300 601 m 1,12,-1
 200 601 l 1,13,-1
 200 700 l 1,14,-1
 300 700 l 1,15,-1
 300 601 l 1,12,-1
0 601 m 1,16,-1
 0 700 l 1,17,-1
 100 700 l 1,18,-1
 100 600 l 1,19,-1
 0 601 l 1,16,-1
EndSplineSet
EndChar

StartChar: FL00D6h
Encoding: 214 214 92
Width: 400
Flags: W
LayerCount: 2
Fore
SplineSet
0 0 m 1,0,-1
 0 500 l 1,1,-1
 300 500 l 1,2,-1
 300 0 l 1,3,-1
 0 0 l 1,0,-1
100 100 m 1,4,-1
 200 100 l 1,5,-1
 200 400 l 1,6,-1
 100 400 l 1,7,-1
 100 100 l 1,4,-1
199 600 m 1,8,-1
 199 700 l 1,9,-1
 301 700 l 1,10,-1
 301 600 l 1,11,-1
 199 600 l 1,8,-1
0 600 m 1,12,-1
 0 700 l 1,13,-1
 100 700 l 1,14,-1
 100 600 l 1,15,-1
 0 600 l 1,12,-1
EndSplineSet
EndChar

StartChar: FL00DCh
Encoding: 220 220 93
Width: 400
Flags: W
LayerCount: 2
Fore
SplineSet
100 100 m 1,0,-1
 200 100 l 1,1,-1
 200 500 l 1,2,-1
 300 500 l 1,3,-1
 300 0 l 1,4,-1
 0 0 l 1,5,-1
 0 500 l 1,6,-1
 100 500 l 1,7,-1
 100 100 l 1,0,-1
200 600 m 1,8,-1
 200 700 l 1,9,-1
 302 700 l 1,10,-1
 302 600 l 1,11,-1
 200 600 l 1,8,-1
0 601 m 1,12,-1
 0 700 l 1,13,-1
 100 700 l 1,14,-1
 100 600 l 1,15,-1
 0 601 l 1,12,-1
EndSplineSet
EndChar

StartChar: FL00E4h
Encoding: 228 228 94
Width: 400
Flags: W
LayerCount: 2
Fore
SplineSet
200 0 m 1,0,-1
 200 200 l 1,1,-1
 100 200 l 1,2,-1
 100 0 l 1,3,-1
 0 0 l 1,4,-1
 0 500 l 1,5,-1
 300 500 l 1,6,-1
 300 0 l 1,7,-1
 200 0 l 1,0,-1
100 400 m 1,8,-1
 100 300 l 1,9,-1
 200 300 l 1,10,-1
 200 400 l 1,11,-1
 100 400 l 1,8,-1
300 601 m 1,12,-1
 200 601 l 1,13,-1
 200 700 l 1,14,-1
 300 700 l 1,15,-1
 300 601 l 1,12,-1
0 601 m 1,16,-1
 0 700 l 1,17,-1
 100 700 l 1,18,-1
 100 600 l 1,19,-1
 0 601 l 1,16,-1
EndSplineSet
EndChar

StartChar: FL00F6h
Encoding: 246 246 95
Width: 400
Flags: W
LayerCount: 2
Fore
SplineSet
0 0 m 1,0,-1
 0 500 l 1,1,-1
 300 500 l 1,2,-1
 300 0 l 1,3,-1
 0 0 l 1,0,-1
100 100 m 1,4,-1
 200 100 l 1,5,-1
 200 400 l 1,6,-1
 100 400 l 1,7,-1
 100 100 l 1,4,-1
199 600 m 1,8,-1
 199 700 l 1,9,-1
 301 700 l 1,10,-1
 301 600 l 1,11,-1
 199 600 l 1,8,-1
0 600 m 1,12,-1
 0 700 l 1,13,-1
 100 700 l 1,14,-1
 100 600 l 1,15,-1
 0 600 l 1,12,-1
EndSplineSet
EndChar

StartChar: FL00FCh
Encoding: 252 252 96
Width: 400
Flags: W
LayerCount: 2
Fore
SplineSet
100 100 m 1,0,-1
 200 100 l 1,1,-1
 200 500 l 1,2,-1
 300 500 l 1,3,-1
 300 0 l 1,4,-1
 0 0 l 1,5,-1
 0 500 l 1,6,-1
 100 500 l 1,7,-1
 100 100 l 1,0,-1
200 600 m 1,8,-1
 200 700 l 1,9,-1
 302 700 l 1,10,-1
 302 600 l 1,11,-1
 200 600 l 1,8,-1
0 601 m 1,12,-1
 0 700 l 1,13,-1
 100 700 l 1,14,-1
 100 600 l 1,15,-1
 0 601 l 1,12,-1
EndSplineSet
EndChar
